<svg xmlns="http://www.w3.org/2000/svg" viewBox="61.516999999999996 154.91036987304688 451.9661230686999 265.17926025390625"> <svg xmlns="http://www.w3.org/2000/svg" xmlns:xlink="http://www.w3.org/1999/xlink" version="1.1" id="Layer_1" x="193.5868682861328" y="224.91036987304688" viewBox="180.2999725341797 57.20000457763672 432.4000244140625 216.59994506835938" xml:space="preserve" height="125.17926025390626" width="249.89625478256707" preserveAspectRatio="xMinYMin" enable-background="new 0 0 792 330" style="overflow: visible;"><linearGradient id="SVGID_1_" gradientUnits="userSpaceOnUse" x1="538.4" y1="214.595" x2="325.639" y2="214.595" style=""><stop offset="0" style="stop-color: #B521BA;"></stop><stop offset="0.5" style="stop-color: #00ABFF;"></stop><stop offset="1" style="stop-color: #290075;"></stop></linearGradient><path class="st0" d="M412.4,230c-2.3-21.9-6.9-42.3-20.8-42.3h-56c-14.1,0-1.5-30.8-13-30.8c-12.8,0-36.7,30.8-63.4,30.8  c-11.2,0-5.4-18.4-10.4-18.4c-5.5,0-18.2,18.4-30.8,18.4h-36.9c-0.4,0-0.8-0.3-0.8-0.8c0-0.4,0.3-0.8,0.8-0.8h36.9  c11.8,0,24.2-18.4,30.8-18.4c7.7,0,0.6,18.4,10.4,18.4c26,0,49.8-30.7,63.4-30.7c13.4,0,0.8,30.7,13,30.7h56  c15.6,0,20.1,22.6,22.3,43.7c2,18.9,2.4,42.4,7.2,42.4c5.6,0,10.2-20.3,16.4-42.5c6-21.2,13.7-43.6,26.8-43.6h24.3  c6.9,0,12.7,13.1,17.6,25c6,14.4,10,24.1,13.3,24.2c3.7,0,5.3-10.9,7.9-23.9c2.4-12,5.8-25.3,14.8-25.3h69.6c0.4,0,0.8,0.4,0.8,0.8  c0,0.4-0.3,0.8-0.8,0.8h-69.6c-7.5,0-10.8,11.4-13.3,24c-1.8,8.8-3.5,25.2-9.4,25.2c-5-0.1-9.8-13.3-14.7-25.1  c-5.2-12.6-10.6-24.1-16.2-24.1h-24.3c-11.7,0-19.1,20.6-25.3,42.5c-3,10.7-5.7,21.5-8.5,29.6c-2.6,7.8-5.5,14-9.5,14  C414.8,273.8,415.2,256.6,412.4,230z" style="fill-rule: evenodd; clip-rule: evenodd; fill: #ff0000; fill-opacity: 0.75;"></path><linearGradient id="SVGID_2_" gradientUnits="userSpaceOnUse" x1="538.4" y1="212.08" x2="325.639" y2="212.08" style=""><stop offset="0" style="stop-color: #B521BA;"></stop><stop offset="0.5" style="stop-color: #00ABFF;"></stop><stop offset="1" style="stop-color: #290075;"></stop></linearGradient><path class="st1" d="M409.9,226.1c-2.8-19.9-7.6-38.5-20.9-38.5h-54c-13.5,0-2.8-27.9-13.8-27.9c-12.9,0-36,27.9-61.6,27.9  c-10.8,0-5.9-16.8-11.2-16.8c-5.9,0-18.4,16.8-30.7,16.8h-36.4c-0.4,0-0.8-0.3-0.8-0.8c0-0.4,0.3-0.8,0.8-0.8h36.4  c11.6,0,23.9-16.8,30.7-16.8c7.6,0,1.7,16.8,11.2,16.8c25,0,47.9-27.9,61.6-27.9c12.9,0,2.1,27.9,13.8,27.9h54  c14.9,0,19.7,20.6,22.4,39.8c1.4,9.9,2.3,19.5,3.6,26.9c1.3,7.7,3,11.6,5.2,11.6c5.9,0,10.9-18.4,17.5-38.6  c6.3-19.3,14.3-39.7,27.2-39.7h23.5c6.7,0,12.4,11.9,17.4,22.8c5.8,12.7,9.8,21.9,13.6,22c3.9,0,5.8-9.9,8.8-21.7  c2.7-10.9,6.5-23,15.4-23h68.1c0.4,0,0.8,0.4,0.8,0.8c0,0.4-0.3,0.8-0.8,0.8h-68.1c-7.4,0-11,10.3-13.9,21.8  c-2.2,8.6-4.4,23-10.3,22.9c-5.2-0.1-10.1-12.1-15-22.8c-5.3-11.5-10.6-21.9-16-21.9h-23.5c-11.5,0-19.2,18.7-25.8,38.6  c-5.1,15.5-11,39.7-19,39.6C413.8,265.9,413.5,251.6,409.9,226.1z" style="fill-rule: evenodd; clip-rule: evenodd; fill: #ff0000; fill-opacity: 0.75;"></path><linearGradient id="SVGID_3_" gradientUnits="userSpaceOnUse" x1="538.4" y1="209.565" x2="325.639" y2="209.565" style=""><stop offset="0" style="stop-color: #B521BA;"></stop><stop offset="0.5" style="stop-color: #00ABFF;"></stop><stop offset="1" style="stop-color: #290075;"></stop></linearGradient><path class="st2" d="M411.8,246.5c-1.6-6.6-2.8-15.5-4.5-24.3c-3.4-17.9-8.4-34.6-21-34.6h-52c-13,0-4-25.2-14.7-25.2  c-13.1,0-35.3,25.2-59.8,25.2c-10.4,0-6.6-15.1-12-15.1c-6.3,0-18.6,15.1-30.7,15.1h-35.9c-0.4,0-0.8-0.3-0.8-0.8  c0-0.4,0.3-0.8,0.8-0.8h35.9c11.4,0,23.5-15.1,30.7-15.1c7.5,0,2.8,15.1,12,15.1c23.9,0,46-25.1,59.8-25.1  c12.4,0,3.4,25.1,14.7,25.1h52c14.1,0,19.3,18.5,22.5,35.8c1.7,8.9,2.9,17.6,4.4,24.2c1.7,6.9,3.5,10.4,5.9,10.4  c6.2,0,11.6-16.6,18.6-34.7c6.7-17.4,14.9-35.7,27.6-35.7h22.8c6.5,0,12.2,10.8,17.2,20.5c5.7,11.1,9.9,19.7,14,19.8  c4.1,0,6.4-8.9,9.7-19.6c3.1-9.8,7.2-20.7,16-20.7h66.7c0.4,0,0.8,0.4,0.8,0.8c0,0.4-0.3,0.8-0.8,0.8h-66.7  c-7.4,0-11.2,9.3-14.5,19.6c-2.6,8.1-5.3,20.7-11.2,20.6c-5.3-0.1-10.4-10.9-15.3-20.6c-5.3-10.3-10.5-19.7-15.9-19.7h-22.8  c-11.4,0-19.3,16.9-26.2,34.8c-5.7,14.8-11.9,35.7-20,35.7C415.4,258.1,413.4,252.9,411.8,246.5z" style="fill-rule: evenodd; clip-rule: evenodd; fill: #ff0000; fill-opacity: 0.75;"></path><linearGradient id="SVGID_4_" gradientUnits="userSpaceOnUse" x1="538.4" y1="207.05" x2="325.639" y2="207.05" style=""><stop offset="0" style="stop-color: #B521BA;"></stop><stop offset="0.5" style="stop-color: #00ABFF;"></stop><stop offset="1" style="stop-color: #290075;"></stop></linearGradient><path class="st3" d="M410.2,240c-1.9-5.9-3.5-13.8-5.4-21.6c-3.9-15.9-9.2-30.7-21.1-30.7h-50c-12.4,0-5.3-22.4-15.6-22.4  c-13.2,0-34.6,22.4-58,22.4c-10,0-7.3-13.4-12.9-13.4c-6.7,0-18.7,13.4-30.6,13.4h-35.4c-0.4,0-0.8-0.3-0.8-0.8  c0-0.4,0.3-0.8,0.8-0.8h35.4c11.3,0,23.1-13.4,30.6-13.4c7.1,0,4,13.4,12.9,13.4c22.9,0,44.1-22.4,58-22.4c12,0,4.8,22.4,15.6,22.4  h50c13.4,0,18.9,16.5,22.6,31.9c1.9,7.9,3.5,15.6,5.3,21.5c1.9,6,4,9.3,6.6,9.3c6.5,0,12.3-14.7,19.6-30.8c7-15.4,15.5-31.8,28-31.8  H488c6.3,0,12,9.6,17,18.3c5.6,9.7,10.1,17.5,14.3,17.5c4.3,0,6.9-8,10.7-17.4c3.5-8.8,8-18.4,16.5-18.4h65.2c0.4,0,0.8,0.4,0.8,0.8  c0,0.4-0.3,0.8-0.8,0.8h-65.2c-7.3,0-11.4,8.3-15.1,17.4c-3,7.6-6.2,18.4-12.1,18.3c-5.4,0-10.6-9.7-15.6-18.3  c-5.3-9.2-10.5-17.5-15.7-17.5h-22.1c-11.3,0-19.4,15-26.6,30.9c-6.3,13.8-12.9,31.8-21,31.8C414.4,250.3,412,245.7,410.2,240z" style="fill-rule: evenodd; clip-rule: evenodd; fill: #ff0000; fill-opacity: 0.75;"></path><linearGradient id="SVGID_5_" gradientUnits="userSpaceOnUse" x1="538.4" y1="204.535" x2="325.639" y2="204.535" style=""><stop offset="0" style="stop-color: #B521BA;"></stop><stop offset="0.5" style="stop-color: #00ABFF;"></stop><stop offset="1" style="stop-color: #290075;"></stop></linearGradient><path class="st4" d="M408.6,233.4c-2.2-5.2-4.1-12.1-6.3-18.9c-4.4-13.9-10-26.8-21.3-26.8h-48c-11.8,0-6.5-19.6-16.5-19.6  c-13.4,0-33.9,19.6-56.2,19.6c-9.5,0-8-11.7-13.7-11.7c-7.1,0-18.9,11.7-30.6,11.7h-34.9c-0.4,0-0.8-0.3-0.8-0.8  c0-0.4,0.3-0.8,0.8-0.8h34.9c11.1,0,22.7-11.7,30.6-11.7c7.1,0,5.1,11.7,13.7,11.7c21.8,0,42.2-19.6,56.2-19.6  c11.4,0,6,19.6,16.5,19.6h48c12.6,0,18.4,14.4,22.7,27.9c2.2,6.9,4,13.7,6.2,18.8c2.2,5.2,4.5,8.1,7.4,8.1c6.8,0,13-12.9,20.7-27  c7.4-13.5,16.1-27.8,28.4-27.8h21.4c6.1,0,11.7,8.4,16.8,16c5.4,8.1,10.2,15.3,14.7,15.3c9.5,0.1,12.5-31.3,28.7-31.3h63.8  c0.4,0,0.8,0.4,0.8,0.8c0,0.4-0.3,0.8-0.8,0.8H548c-15,0-17.8,31.4-28.7,31.3c-5.5,0-10.9-8.4-15.9-16c-5.4-8-10.5-15.3-15.5-15.3  h-21.4c-11.2,0-19.5,13.1-27,27c-6.8,12.4-13.8,27.8-22,27.8C413.4,242.5,410.8,238.5,408.6,233.4z" style="fill-rule: evenodd; clip-rule: evenodd; fill: #ff0000; fill-opacity: 0.75;"></path><linearGradient id="SVGID_6_" gradientUnits="userSpaceOnUse" x1="538.4" y1="202.015" x2="325.639" y2="202.015" style=""><stop offset="0" style="stop-color: #B521BA;"></stop><stop offset="0.5" style="stop-color: #00ABFF;"></stop><stop offset="1" style="stop-color: #290075;"></stop></linearGradient><path class="st5" d="M399.9,210.7c-5-11.9-10.7-23-21.4-23h-46.1c-11.2,0-7.8-16.8-17.4-16.8c-13.5,0-33.2,16.8-54.4,16.8  c-9.1,0-8.7-10.1-14.5-10.1c-7.6,0-19.1,10.1-30.5,10.1h-34.3c-0.4,0-0.8-0.3-0.8-0.8c0-0.4,0.3-0.8,0.8-0.8h34.3  c10.9,0,22.4-10.1,30.5-10.1c7,0,6.2,10.1,14.5,10.1c20.8,0,40.4-16.8,54.4-16.8c10.9,0,7.4,16.8,17.4,16.8h46.1  c11.9,0,18,12.4,22.8,24c5.5,13.3,9,23,15.2,23c7.1,0,13.7-11.1,21.8-23.1c7.8-11.6,16.8-23.8,28.8-23.8h20.6  c11.3,0,21.8,26.8,31.6,26.8c9.9,0.1,14.2-26.8,30.2-26.8h62.3c0.4,0,0.8,0.4,0.8,0.8c0,0.4-0.3,0.8-0.8,0.8h-62.3  c-14.8,0-19.1,26.9-30.2,26.8c-10.9-0.1-21.3-26.8-31.6-26.8H467c-11.1,0-19.6,11.3-27.5,23.1c-7.3,10.9-14.8,23.8-23,23.8  C408.6,234.6,404.6,222,399.9,210.7z" style="fill-rule: evenodd; clip-rule: evenodd; fill: #ff0000; fill-opacity: 0.75;"></path><linearGradient id="SVGID_7_" gradientUnits="userSpaceOnUse" x1="538.4" y1="199.505" x2="325.639" y2="199.505" style=""><stop offset="0" style="stop-color: #B521BA;"></stop><stop offset="0.5" style="stop-color: #00ABFF;"></stop><stop offset="1" style="stop-color: #290075;"></stop></linearGradient><path class="st6" d="M375.8,187.7h-44.1c-10.6,0-9-14-18.2-14c-13.7,0-32.5,14-52.6,14c-8.7,0-9.4-8.4-15.3-8.4  c-8,0-19.2,8.4-30.5,8.4h-33.8c-0.4,0-0.8-0.3-0.8-0.8c0-0.4,0.3-0.8,0.8-0.8h33.8c10.8,0,22-8.4,30.5-8.4c6.9,0,7.3,8.4,15.3,8.4  c19.7,0,38.5-14,52.6-14c10.3,0,8.6,14,18.2,14h44.1c21.6,0,25.8,39.1,39.7,39.1c15.4,0,28.8-39.1,52-39.1h19.9  c10.9,0,21.5,22.3,31.7,22.4c10.2,0.1,16-22.4,31.7-22.4h60.8c0.4,0,0.8,0.4,0.8,0.8c0,0.4-0.3,0.8-0.8,0.8h-60.8  c-14.7,0-20.5,22.4-31.7,22.4c-11.2-0.1-21.7-22.4-31.7-22.4h-19.9c-22.3,0-35.5,39.2-52,39.1C399.9,226.8,396.5,187.7,375.8,187.7z  " style="fill-rule: evenodd; clip-rule: evenodd; fill: #ff0000; fill-opacity: 0.75;"></path><linearGradient id="SVGID_8_" gradientUnits="userSpaceOnUse" x1="538.4" y1="196.985" x2="325.639" y2="196.985" style=""><stop offset="0" style="stop-color: #B521BA;"></stop><stop offset="0.5" style="stop-color: #00ABFF;"></stop><stop offset="1" style="stop-color: #290075;"></stop></linearGradient><path class="st7" d="M373.1,187.7H331c-10,0-10.3-11.2-19.1-11.2c-13.9,0-31.8,11.2-50.9,11.2c-8.2,0-10.1-6.7-16.1-6.7  c-8.4,0-19.4,6.7-30.4,6.7h-33.3c-0.4,0-0.8-0.3-0.8-0.8c0-0.4,0.3-0.8,0.8-0.8h33.3c10.6,0,21.6-6.7,30.4-6.7  c6.8,0,8.4,6.7,16.1,6.7c18.7,0,36.6-11.2,50.9-11.2c9.7,0,10,11.2,19.1,11.2h42.1c20.2,0,26.7,31.3,41.4,31.3  c16,0,30.6-31.3,53.5-31.3h19.2c10.5,0,21.3,17.9,31.9,17.9c10.6,0,17.9-17.9,33.2-17.9h59.4c0.4,0,0.8,0.4,0.8,0.8  c0,0.4-0.3,0.8-0.8,0.8h-59.4c-14.5,0-22,17.9-33.3,17.9c-11.5,0-22.1-17.9-31.9-17.9H468c-22,0-36.6,31.3-53.5,31.3  C398.5,219,392.6,187.7,373.1,187.7z" style="fill-rule: evenodd; clip-rule: evenodd; fill: #ff0000; fill-opacity: 0.75;"></path><linearGradient id="SVGID_9_" gradientUnits="userSpaceOnUse" x1="538.4" y1="194.47" x2="325.639" y2="194.47" style=""><stop offset="0" style="stop-color: #B521BA;"></stop><stop offset="0.5" style="stop-color: #00ABFF;"></stop><stop offset="1" style="stop-color: #290075;"></stop></linearGradient><path class="st8" d="M370.5,187.7h-40.1c-9.4,0-11.5-8.4-20-8.4c-14,0-31.1,8.4-49.1,8.4c-7.8,0-10.8-5-16.9-5c-8.8,0-19.6,5-30.4,5  h-32.8c-0.4,0-0.8-0.3-0.8-0.8c0-0.4,0.3-0.8,0.8-0.8h32.8c10.5,0,21.3-5,30.4-5c6.7,0,9.6,5,16.9,5c17.6,0,34.7-8.4,49.1-8.4  c9.2,0,11.3,8.4,20,8.4h40.1c18.7,0,27.6,23.5,43.1,23.5c16.6,0,32.5-23.5,54.9-23.5H487c10.1,0,21,13.4,32,13.4  c10.9,0,19.7-13.4,34.8-13.4h57.9c0.4,0,0.8,0.4,0.8,0.8c0,0.4-0.3,0.8-0.8,0.8h-57.9c-14.4,0-23.3,13.4-34.8,13.4  c-11.8,0-22.4-13.4-32-13.4h-18.5c-21.7,0-37.7,23.5-54.9,23.5C397.2,211.2,388.6,187.7,370.5,187.7z" style="fill-rule: evenodd; clip-rule: evenodd; fill: #ff0000; fill-opacity: 0.75;"></path><linearGradient id="SVGID_10_" gradientUnits="userSpaceOnUse" x1="538.4" y1="191.96" x2="325.639" y2="191.96" style=""><stop offset="0" style="stop-color: #B521BA;"></stop><stop offset="0.5" style="stop-color: #00ABFF;"></stop><stop offset="1" style="stop-color: #290075;"></stop></linearGradient><path class="st9" d="M367.9,187.7h-38.1c-8.8,0-12.6-5.6-20.9-5.6c-14.2,0-30.5,5.6-47.3,5.6c-7.3,0-11.5-3.4-17.7-3.4  c-9.2,0-19.8,3.4-30.3,3.4h-32.3c-0.4,0-0.8-0.3-0.8-0.8c0-0.4,0.3-0.8,0.8-0.8h32.3c10.4,0,20.9-3.3,30.3-3.3  c6.6,0,10.7,3.3,17.7,3.3c16.6,0,32.9-5.6,47.3-5.6c8.6,0,12.5,5.6,20.9,5.6h38.1c17.3,0,28.6,15.7,44.9,15.7  c17.2,0,34.4-15.7,56.4-15.7h17.8c9.7,0,20.6,8.9,32.1,9c11.3,0,21.5-9,36.3-9h56.5c0.4,0,0.8,0.4,0.8,0.8c0,0.4-0.3,0.8-0.8,0.8  h-56.5c-14.3,0-24.7,9-36.3,8.9c-12,0-22.8-8.9-32.1-8.9h-17.8c-21.5,0-38.8,15.7-56.4,15.7C395.8,203.3,384.7,187.7,367.9,187.7z" style="fill-rule: evenodd; clip-rule: evenodd; fill: #ff0000; fill-opacity: 0.75;"></path><linearGradient id="SVGID_11_" gradientUnits="userSpaceOnUse" x1="538.4" y1="189.44" x2="325.639" y2="189.44" style=""><stop offset="0" style="stop-color: #B521BA;"></stop><stop offset="0.5" style="stop-color: #00ABFF;"></stop><stop offset="1" style="stop-color: #290075;"></stop></linearGradient><path class="st10" d="M365.2,187.7H329c-8.1,0-13.8-2.8-21.7-2.8c-14.4,0-29.8,2.8-45.5,2.8c-6.9,0-12.2-1.7-18.6-1.7  c-9.7,0-20,1.7-30.3,1.7h-31.8c-0.4,0-0.8-0.3-0.8-0.8c0-0.4,0.3-0.8,0.8-0.8H213c10.2,0,20.5-1.7,30.3-1.7c6.5,0,11.8,1.7,18.6,1.7  c15.6,0,31-2.8,45.5-2.8c8.1,0,13.8,2.8,21.7,2.8h36.2c15.8,0,29.6,7.8,46.6,7.8c17.8,0,36.3-7.8,57.8-7.8h17  c9.3,0,20.3,4.5,32.3,4.5c11.6,0,23.4-4.5,37.8-4.5h55c0.4,0,0.8,0.4,0.8,0.8c0,0.4-0.3,0.8-0.8,0.8h-55c-14.2,0-26,4.5-37.8,4.5  c-12.3,0-23.2-4.5-32.3-4.5h-17c-21.2,0-39.9,7.8-57.8,7.8C394.5,195.5,380.8,187.7,365.2,187.7z" style="fill-rule: evenodd; clip-rule: evenodd; fill: #ff0000; fill-opacity: 0.75;"></path><linearGradient id="SVGID_12_" gradientUnits="userSpaceOnUse" x1="538.4" y1="122.56" x2="325.639" y2="122.56" style=""><stop offset="0" style="stop-color: #B521BA;"></stop><stop offset="0.5" style="stop-color: #00ABFF;"></stop><stop offset="1" style="stop-color: #290075;"></stop></linearGradient><path class="st11" d="M180.5,187.1c0-0.4,0.3-0.8,0.8-0.8h114.5c31.3,0,50.2-31.7,63.6-64.1c13.6-32.8,21-65,31-65  c3.9,0,5.8,9.3,7.3,20.8c1.5,12.1,2.7,28.3,4.1,44.4c3.1,33.3,7.5,63.9,18.5,63.9h31.5c8.4,0,13.9-18.9,18.3-39.4  c5.9-27.5,7.8-40.6,12.5-40.6c6.5,0,6.3,14,8.9,40.7c2,20.3,6.1,39.3,19.3,39.3h100.9c0.4,0,0.8,0.4,0.8,0.8c0,0.4-0.3,0.8-0.8,0.8  H510.8c-15,0-18.9-21-20.8-40.7c-1-10.1-1.5-20-2.5-27.5c-1.1-7.9-2.6-11.8-4.9-11.8c-1.4,0-3.2,4-5.1,11.9  c-1.8,7.5-3.7,17.4-5.8,27.5c-4.2,19.5-9.8,40.6-19.8,40.6h-31.5c-12.9,0-17.1-33.6-20.1-65.3c-1.5-16.2-2.6-32.3-4.1-44.4  c-1.6-12.7-3.6-19.5-5.8-19.5c-8.4,0-15.9,31.1-29.6,64.1c-13.3,32.2-32.5,65-65,65H181.3C180.8,187.9,180.5,187.6,180.5,187.1z" style="fill-rule: evenodd; clip-rule: evenodd; fill: #ff0000; fill-opacity: 0.75;"></path><linearGradient id="SVGID_13_" gradientUnits="userSpaceOnUse" x1="538.4" y1="128.43" x2="325.639" y2="128.43" style=""><stop offset="0" style="stop-color: #B521BA;"></stop><stop offset="0.5" style="stop-color: #00ABFF;"></stop><stop offset="1" style="stop-color: #290075;"></stop></linearGradient><path class="st12" d="M180.5,187.1c0-0.4,0.3-0.8,0.8-0.8h111.5c29.9,0,48.5-28.8,62.1-58.3c13.9-29.9,22-59.2,32.6-59.2  c4.2,0,6.6,8.4,8.4,19c2,11,3.6,25.8,5.5,40.4c4,30.3,9.2,58,20.3,58H452c8.2,0,13.8-17.2,18.4-35.8c2.3-9.1,4.3-18.2,6.3-25  c1.9-6.5,4.1-11.9,7.1-11.9c6.4,0,6.8,11.4,10.5,37c2.6,18.5,7.1,35.7,19.9,35.7h97.5c0.4,0,0.8,0.4,0.8,0.8c0,0.4-0.3,0.8-0.8,0.8  h-97.5c-14.5,0-18.9-19.1-21.4-37c-1.3-9.1-2.1-18.1-3.4-24.9c-1.4-7.1-3.1-10.7-5.5-10.7c-1.6,0-3.5,3.6-5.7,10.8  c-2,6.8-4,15.8-6.3,24.9c-4.5,17.7-10.2,36.9-19.9,36.9h-30.3c-12.9,0-18-30.6-21.8-59.4c-2-14.7-3.6-29.3-5.5-40.3  c-2.1-11.5-4.4-17.7-6.9-17.7c-9.1,0-17.3,28.3-31.2,58.3c-13.6,29.3-32.5,59.1-63.5,59.1H181.3  C180.8,187.9,180.5,187.6,180.5,187.1z" style="fill-rule: evenodd; clip-rule: evenodd; fill: #ff0000; fill-opacity: 0.75;"></path><linearGradient id="SVGID_14_" gradientUnits="userSpaceOnUse" x1="538.4" y1="134.3" x2="325.639" y2="134.3" style=""><stop offset="0" style="stop-color: #B521BA;"></stop><stop offset="0.5" style="stop-color: #00ABFF;"></stop><stop offset="1" style="stop-color: #290075;"></stop></linearGradient><path class="st13" d="M180.5,187.1c0-0.4,0.3-0.8,0.8-0.8h108.4c28.5,0,46.8-25.9,60.6-52.4c14.2-27.2,23.1-53.3,34.2-53.3  c4.4,0,7.3,7.5,9.6,17.1c2.4,9.9,4.5,23.2,6.9,36.4c4.9,27.2,10.8,52.2,22.1,52.2h29.1c8,0,13.6-15.4,18.6-32.1  c3.8-12.7,8.3-33.3,14.5-33.3c4,0,6.1,4.9,7.6,10.8c1.6,6.2,2.8,14.4,4.4,22.5c3.3,16.6,8.1,32.1,20.5,32.1h94  c0.4,0,0.8,0.4,0.8,0.8c0,0.4-0.3,0.8-0.8,0.8h-94c-13.9,0-18.9-17.2-22-33.3c-1.6-8.2-2.8-16.3-4.4-22.4c-1.6-6.3-3.6-9.7-6.1-9.7  c-4.1,0-8,15.2-13,32.2c-4.7,16-10.6,33.3-20,33.3H423c-13,0-18.9-27.5-23.6-53.5c-2.4-13.2-4.5-26.4-6.9-36.3  c-2.5-10.3-5.2-15.9-8.1-15.9c-19.8,0-36.5,105.7-94.8,105.7H181.3C180.8,187.9,180.5,187.6,180.5,187.1z" style="fill-rule: evenodd; clip-rule: evenodd; fill: #ff0000; fill-opacity: 0.75;"></path><linearGradient id="SVGID_15_" gradientUnits="userSpaceOnUse" x1="538.4" y1="140.17" x2="325.639" y2="140.17" style=""><stop offset="0" style="stop-color: #B521BA;"></stop><stop offset="0.5" style="stop-color: #00ABFF;"></stop><stop offset="1" style="stop-color: #290075;"></stop></linearGradient><path class="st14" d="M180.5,187.1c0-0.4,0.3-0.8,0.8-0.8h105.3c27.1,0,45.1-23.1,59.2-46.6c14.7-24.5,24.2-47.3,35.7-47.3  c9.3,0,14.4,28.5,19,47.6c5.9,24.1,12.4,46.4,23.9,46.4h27.8c7.8,0,13.5-13.7,18.7-28.6c4.3-12.3,9.1-29.6,15.5-29.6  c4,0,6.4,4.3,8.2,9.6c1.9,5.5,3.5,12.8,5.4,20c3.9,14.7,9.1,28.5,21.2,28.5h90.5c0.4,0,0.8,0.4,0.8,0.8c0,0.4-0.3,0.8-0.8,0.8h-90.5  c-13.5,0-18.9-15.3-22.7-29.6c-1.9-7.3-3.4-14.5-5.3-19.9c-1.9-5.6-4-8.6-6.8-8.6c-4.5,0-8.8,13.5-14.1,28.6  c-5,14.2-11,29.6-20.2,29.6h-27.8c-13,0-19.8-24.5-25.3-47.5C392.7,114,388.3,94,381.5,94c-21.1,0-39.5,93.9-94.9,93.9H181.3  C180.8,187.9,180.5,187.6,180.5,187.1z" style="fill-rule: evenodd; clip-rule: evenodd; fill: #ff0000; fill-opacity: 0.75;"></path><linearGradient id="SVGID_16_" gradientUnits="userSpaceOnUse" x1="538.4" y1="146.04" x2="325.639" y2="146.04" style=""><stop offset="0" style="stop-color: #B521BA;"></stop><stop offset="0.5" style="stop-color: #00ABFF;"></stop><stop offset="1" style="stop-color: #290075;"></stop></linearGradient><path class="st15" d="M180.5,187.1c0-0.4,0.3-0.8,0.8-0.8h102.3c25.7,0,43.4-20.2,57.7-40.8c15.4-22.1,25.3-41.4,37.3-41.4  c9.7,0,15.9,23.8,21.6,41.6c6.7,20.9,14.1,40.6,25.6,40.6h26.6c7.6,0,13.4-12,18.9-25c4.8-11.3,10-25.9,16.5-25.9  c7.7,0,10.9,13.7,15.1,25.9c4.5,12.9,10.1,24.9,21.8,24.9h87c0.4,0,0.8,0.4,0.8,0.8c0,0.4-0.3,0.8-0.8,0.8h-87  c-12.9,0-18.9-13.4-23.3-25.9c-5.7-16.2-8.1-24.9-13.7-24.9c-4.9,0-9.5,11.8-15.1,25c-5.3,12.4-11.5,25.9-20.3,25.9h-26.6  c-13,0-20.6-21.4-27.1-41.6c-7.1-22.3-12.5-40.6-20.1-40.6c-22.4,0-42.5,82.2-95,82.2H181.3C180.8,187.9,180.5,187.6,180.5,187.1z" style="fill-rule: evenodd; clip-rule: evenodd; fill: #ff0000; fill-opacity: 0.75;"></path><linearGradient id="SVGID_17_" gradientUnits="userSpaceOnUse" x1="538.4" y1="151.91" x2="325.639" y2="151.91" style=""><stop offset="0" style="stop-color: #B521BA;"></stop><stop offset="0.5" style="stop-color: #00ABFF;"></stop><stop offset="1" style="stop-color: #290075;"></stop></linearGradient><path class="st16" d="M180.5,187.1c0-0.4,0.3-0.8,0.8-0.8h99.2c48.9,0,69.9-70.4,95.1-70.4c9.9,0,16.8,18.5,24.1,35.7  c7.6,17.9,15.7,34.8,27.4,34.8h25.3c7.4,0,13.3-10.3,19.1-21.4c5.2-10,10.9-22.2,17.5-22.2c15.2,0,15.8,43.6,39.1,43.6h83.6  c0.4,0,0.8,0.4,0.8,0.8c0,0.4-0.3,0.8-0.8,0.8h-83.6c-24.2,0-25.8-43.6-39.1-43.6c-5.4,0-10.3,10.1-16.1,21.4  c-5.5,10.7-11.9,22.2-20.5,22.2h-25.3c-13,0-21.4-18.3-28.8-35.7c-7.9-18.7-14.1-34.8-22.7-34.8c-23.8,0-45.5,70.4-95.1,70.4h-99.2  C180.8,187.9,180.5,187.6,180.5,187.1z" style="fill-rule: evenodd; clip-rule: evenodd; fill: #ff0000; fill-opacity: 0.75;"></path><linearGradient id="SVGID_18_" gradientUnits="userSpaceOnUse" x1="538.4" y1="157.78" x2="325.639" y2="157.78" style=""><stop offset="0" style="stop-color: #B521BA;"></stop><stop offset="0.5" style="stop-color: #00ABFF;"></stop><stop offset="1" style="stop-color: #290075;"></stop></linearGradient><path class="st17" d="M180.5,187.1c0-0.4,0.3-0.8,0.8-0.8h96.2c46,0,68.9-58.7,95.2-58.7c10.4,0,18.4,15.3,26.6,29.7  c8.5,14.9,17.3,29,29.2,29h24.1c7.2,0,13.3-8.6,19.3-17.8c5.8-8.8,11.6-18.5,18.5-18.5c15.2,0,18.8,36.3,41.3,36.3h80.1  c0.4,0,0.8,0.4,0.8,0.8c0,0.4-0.3,0.8-0.8,0.8h-80.1c-23.3,0-27.4-36.3-41.3-36.3c-5.8,0-11.1,8.5-17.2,17.8  c-5.8,8.9-12.3,18.5-20.6,18.5h-24.1c-13,0-22.3-15.2-30.5-29.7c-8.6-15-16-29-25.3-29c-25.1,0-48.6,58.7-95.2,58.7h-96.2  C180.8,187.9,180.5,187.6,180.5,187.1z" style="fill-rule: evenodd; clip-rule: evenodd; fill: #ff0000; fill-opacity: 0.75;"></path><linearGradient id="SVGID_19_" gradientUnits="userSpaceOnUse" x1="538.4" y1="163.65" x2="325.639" y2="163.65" style=""><stop offset="0" style="stop-color: #B521BA;"></stop><stop offset="0.5" style="stop-color: #00ABFF;"></stop><stop offset="1" style="stop-color: #290075;"></stop></linearGradient><path class="st18" d="M180.5,187.1c0-0.4,0.3-0.8,0.8-0.8h93.1c43.2,0,68-47,95.3-47c21.5,0,35.5,47,60.1,47h22.8  c14.5,0,25.1-29.1,39-29.1c15.5,0,21.9,29.1,43.5,29.1h76.6c0.4,0,0.8,0.4,0.8,0.8c0,0.4-0.3,0.8-0.8,0.8h-76.6  c-22.3,0-29.1-29.1-43.5-29.1c-12.8,0-23.6,29.1-39,29.1h-22.8c-25.6,0-39.8-47-60.1-47c-26.5,0-51.6,47-95.3,47h-93.1  C180.8,187.9,180.5,187.6,180.5,187.1z" style="fill-rule: evenodd; clip-rule: evenodd; fill: #ff0000; fill-opacity: 0.75;"></path><linearGradient id="SVGID_20_" gradientUnits="userSpaceOnUse" x1="538.4" y1="169.52" x2="325.639" y2="169.52" style=""><stop offset="0" style="stop-color: #B521BA;"></stop><stop offset="0.5" style="stop-color: #00ABFF;"></stop><stop offset="1" style="stop-color: #290075;"></stop></linearGradient><path class="st19" d="M180.5,187.1c0-0.4,0.3-0.8,0.8-0.8h90c40.4,0,67-35.2,95.5-35.2c22.6,0,39.5,35.2,64.5,35.2h21.6  c14,0,25.8-21.8,40.1-21.8c15.7,0,24.9,21.8,45.6,21.8h73.2c0.4,0,0.8,0.4,0.8,0.8c0,0.4-0.3,0.8-0.8,0.8h-73.2  c-21.3,0-30.7-21.8-45.6-21.8c-13.5,0-25.3,21.8-40.1,21.8h-21.6c-25.7,0-42.7-35.2-64.5-35.2c-27.8,0-54.7,35.2-95.5,35.2h-90  C180.8,187.9,180.5,187.6,180.5,187.1z" style="fill-rule: evenodd; clip-rule: evenodd; fill: #ff0000; fill-opacity: 0.75;"></path><linearGradient id="SVGID_21_" gradientUnits="userSpaceOnUse" x1="538.4" y1="175.39" x2="325.639" y2="175.39" style=""><stop offset="0" style="stop-color: #B521BA;"></stop><stop offset="0.5" style="stop-color: #00ABFF;"></stop><stop offset="1" style="stop-color: #290075;"></stop></linearGradient><path class="st20" d="M180.5,187.1c0-0.4,0.3-0.8,0.8-0.8h87c37.5,0,65.9-23.5,95.6-23.5c23.6,0,43.5,23.5,68.8,23.5h20.4  c13.6,0,26.5-14.5,41.3-14.5c15.9,0,27.9,14.5,47.8,14.5h69.7c0.4,0,0.8,0.4,0.8,0.8c0,0.4-0.3,0.8-0.8,0.8H542  c-20.3,0-32.4-14.5-47.8-14.5c-14.4,0-27.2,14.5-41.3,14.5h-20.4c-25.7,0-45.6-23.5-68.8-23.5c-29.2,0-57.7,23.5-95.6,23.5h-87  C180.8,187.9,180.5,187.6,180.5,187.1z" style="fill-rule: evenodd; clip-rule: evenodd; fill: #ff0000; fill-opacity: 0.75;"></path><linearGradient id="SVGID_22_" gradientUnits="userSpaceOnUse" x1="538.4" y1="181.26" x2="325.639" y2="181.26" style=""><stop offset="0" style="stop-color: #B521BA;"></stop><stop offset="0.5" style="stop-color: #00ABFF;"></stop><stop offset="1" style="stop-color: #290075;"></stop></linearGradient><path class="st21" d="M180.5,187.1c0-0.4,0.3-0.8,0.8-0.8h83.9c34.7,0,64.9-11.7,95.7-11.7c24.7,0,47.6,11.7,73.1,11.7H453  c13.3,0,27.1-7.3,42.5-7.3c16.1,0,30.9,7.3,50,7.3h66.2c0.4,0,0.8,0.4,0.8,0.8c0,0.4-0.3,0.8-0.8,0.8h-66.2c-19.3,0-34.1-7.3-50-7.3  c-15.2,0-28.9,7.3-42.5,7.3h-19.1c-25.8,0-48.6-11.7-73.1-11.7c-30.6,0-60.8,11.7-95.7,11.7h-83.9  C180.8,187.9,180.5,187.6,180.5,187.1z" style="fill-rule: evenodd; clip-rule: evenodd; fill: #ff0000; fill-opacity: 0.75;"></path><linearGradient id="SVGID_23_" gradientUnits="userSpaceOnUse" x1="538.4" y1="187.13" x2="325.639" y2="187.13" style=""><stop offset="0" style="stop-color: #B521BA;"></stop><stop offset="0.5" style="stop-color: #00ABFF;"></stop><stop offset="1" style="stop-color: #290075;"></stop></linearGradient><path class="st22" d="M180.5,187.1c0-0.4,0.3-0.8,0.8-0.8h430.5c0.4,0,0.8,0.4,0.8,0.8c0,0.4-0.3,0.8-0.8,0.8H181.3  C180.8,187.9,180.5,187.6,180.5,187.1z" style="fill-rule: evenodd; clip-rule: evenodd; fill: #ff0000; fill-opacity: 0.75;"></path></svg> <svg xmlns="http://www.w3.org/2000/svg" y="312.44" viewBox="2.4000000953674316 8.960000038146973 175.17001342773438 24.93000030517578" x="131.517" height="24.93000030517578" width="175.17001342773438" style="overflow: visible;"><g fill="#ffffff" fill-opacity="1" style=""><path d="M18.30 33.60L13.95 33.60L8.83 24.70L6.05 24.70L6.05 33.60L2.40 33.60L2.40 11.36L10.08 11.36Q12.64 11.36 14.42 12.26Q16.19 13.15 17.07 14.66Q17.95 16.16 17.95 18.02L17.95 18.02Q17.95 20.19 16.69 21.97Q15.42 23.74 12.80 24.38L12.80 24.38L18.30 33.60ZM6.05 14.34L6.05 21.79L10.08 21.79Q12.13 21.79 13.17 20.77Q14.21 19.74 14.21 18.02L14.21 18.02Q14.21 16.29 13.18 15.31Q12.16 14.34 10.08 14.34L10.08 14.34L6.05 14.34ZM24.48 13.63Q23.49 13.63 22.82 12.96Q22.14 12.29 22.14 11.30L22.14 11.30Q22.14 10.30 22.82 9.63Q23.49 8.96 24.48 8.96L24.48 8.96Q25.44 8.96 26.11 9.63Q26.78 10.30 26.78 11.30L26.78 11.30Q26.78 12.29 26.11 12.96Q25.44 13.63 24.48 13.63L24.48 13.63ZM22.62 15.97L26.27 15.97L26.27 33.60L22.62 33.60L22.62 15.97ZM37.47 33.89Q35.39 33.89 33.74 33.14Q32.10 32.38 31.14 31.09Q30.18 29.79 30.11 28.19L30.11 28.19L33.89 28.19Q33.98 29.31 34.96 30.06Q35.94 30.82 37.41 30.82L37.41 30.82Q38.94 30.82 39.79 30.22Q40.64 29.63 40.64 28.70L40.64 28.70Q40.64 27.71 39.70 27.23Q38.75 26.75 36.70 26.18L36.70 26.18Q34.72 25.63 33.47 25.12Q32.22 24.61 31.31 23.55Q30.40 22.50 30.40 20.77L30.40 20.77Q30.40 19.36 31.23 18.19Q32.06 17.02 33.62 16.35Q35.17 15.68 37.18 15.68L37.18 15.68Q40.19 15.68 42.03 17.20Q43.87 18.72 44 21.34L44 21.34L40.35 21.34Q40.26 20.16 39.39 19.46Q38.53 18.75 37.06 18.75L37.06 18.75Q35.62 18.75 34.85 19.30Q34.08 19.84 34.08 20.74L34.08 20.74Q34.08 21.44 34.59 21.92Q35.10 22.40 35.84 22.67Q36.58 22.94 38.02 23.36L38.02 23.36Q39.94 23.87 41.17 24.40Q42.40 24.93 43.30 25.95Q44.19 26.98 44.22 28.67L44.22 28.67Q44.22 30.18 43.39 31.36Q42.56 32.54 41.04 33.22Q39.52 33.89 37.47 33.89L37.47 33.89ZM63.26 15.97L55.14 24.80L63.26 33.60L58.34 33.60L51.81 26.02L51.81 33.60L48.16 33.60L48.16 9.92L51.81 9.92L51.81 23.68L58.21 15.97L63.26 15.97ZM85.41 11.36L89.31 11.36L89.31 33.60L85.66 33.60L85.66 18.37L78.88 33.60L76.35 33.60L69.54 18.37L69.54 33.60L65.89 33.60L65.89 11.36L69.82 11.36L77.63 28.80L85.41 11.36ZM101.76 33.89Q99.26 33.89 97.25 32.75Q95.23 31.62 94.08 29.55Q92.93 27.49 92.93 24.77L92.93 24.77Q92.93 22.08 94.11 20Q95.30 17.92 97.34 16.80Q99.39 15.68 101.92 15.68L101.92 15.68Q104.45 15.68 106.50 16.80Q108.54 17.92 109.73 20Q110.91 22.08 110.91 24.77L110.91 24.77Q110.91 27.46 109.70 29.54Q108.48 31.62 106.38 32.75Q104.29 33.89 101.76 33.89L101.76 33.89ZM101.76 30.72Q103.17 30.72 104.40 30.05Q105.63 29.38 106.40 28.03Q107.17 26.69 107.17 24.77L107.17 24.77Q107.17 22.85 106.43 21.52Q105.70 20.19 104.48 19.52Q103.26 18.85 101.86 18.85L101.86 18.85Q100.45 18.85 99.25 19.52Q98.05 20.19 97.34 21.52Q96.64 22.85 96.64 24.77L96.64 24.77Q96.64 27.62 98.10 29.17Q99.55 30.72 101.76 30.72L101.76 30.72ZM113.31 24.70Q113.31 22.05 114.42 20Q115.52 17.95 117.42 16.82Q119.33 15.68 121.66 15.68L121.66 15.68Q123.39 15.68 125.07 16.43Q126.75 17.18 127.74 18.43L127.74 18.43L127.74 9.92L131.42 9.92L131.42 33.60L127.74 33.60L127.74 30.94Q126.85 32.22 125.26 33.06Q123.68 33.89 121.63 33.89L121.63 33.89Q119.33 33.89 117.42 32.72Q115.52 31.55 114.42 29.46Q113.31 27.36 113.31 24.70L113.31 24.70ZM127.74 24.77Q127.74 22.94 126.99 21.60Q126.24 20.26 125.02 19.55Q123.81 18.85 122.40 18.85L122.40 18.85Q120.99 18.85 119.78 19.54Q118.56 20.22 117.81 21.55Q117.06 22.88 117.06 24.70L117.06 24.70Q117.06 26.53 117.81 27.90Q118.56 29.28 119.79 30Q121.02 30.72 122.40 30.72L122.40 30.72Q123.81 30.72 125.02 30.02Q126.24 29.31 126.99 27.95Q127.74 26.59 127.74 24.77L127.74 24.77ZM152.38 24.35Q152.38 25.34 152.26 26.14L152.26 26.14L138.78 26.14Q138.94 28.26 140.35 29.54Q141.76 30.82 143.81 30.82L143.81 30.82Q146.75 30.82 147.97 28.35L147.97 28.35L151.90 28.35Q151.10 30.78 149.01 32.34Q146.91 33.89 143.81 33.89L143.81 33.89Q141.28 33.89 139.28 32.75Q137.28 31.62 136.14 29.55Q135.01 27.49 135.01 24.77L135.01 24.77Q135.01 22.05 136.11 19.98Q137.22 17.92 139.22 16.80Q141.22 15.68 143.81 15.68L143.81 15.68Q146.30 15.68 148.26 16.77Q150.21 17.86 151.30 19.82Q152.38 21.79 152.38 24.35L152.38 24.35ZM138.82 23.20L148.58 23.20Q148.54 21.18 147.14 19.97Q145.73 18.75 143.65 18.75L143.65 18.75Q141.76 18.75 140.42 19.95Q139.07 21.15 138.82 23.20L138.82 23.20ZM155.97 9.92L159.62 9.92L159.62 33.60L155.97 33.60L155.97 9.92ZM170.82 33.89Q168.74 33.89 167.09 33.14Q165.44 32.38 164.48 31.09Q163.52 29.79 163.46 28.19L163.46 28.19L167.23 28.19Q167.33 29.31 168.30 30.06Q169.28 30.82 170.75 30.82L170.75 30.82Q172.29 30.82 173.14 30.22Q173.98 29.63 173.98 28.70L173.98 28.70Q173.98 27.71 173.04 27.23Q172.10 26.75 170.05 26.18L170.05 26.18Q168.06 25.63 166.82 25.12Q165.57 24.61 164.66 23.55Q163.74 22.50 163.74 20.77L163.74 20.77Q163.74 19.36 164.58 18.19Q165.41 17.02 166.96 16.35Q168.51 15.68 170.53 15.68L170.53 15.68Q173.54 15.68 175.38 17.20Q177.22 18.72 177.34 21.34L177.34 21.34L173.70 21.34Q173.60 20.16 172.74 19.46Q171.87 18.75 170.40 18.75L170.40 18.75Q168.96 18.75 168.19 19.30Q167.42 19.84 167.42 20.74L167.42 20.74Q167.42 21.44 167.94 21.92Q168.45 22.40 169.18 22.67Q169.92 22.94 171.36 23.36L171.36 23.36Q173.28 23.87 174.51 24.40Q175.74 24.93 176.64 25.95Q177.54 26.98 177.57 28.67L177.57 28.67Q177.57 30.18 176.74 31.36Q175.90 32.54 174.38 33.22Q172.86 33.89 170.82 33.89L170.82 33.89Z" transform="translate(0, 0)"></path></g></svg></svg>