<svg xmlns="http://www.w3.org/2000/svg" viewBox="-61.5 161.5 685 253"> <svg xmlns="http://www.w3.org/2000/svg" xmlns:xlink="http://www.w3.org/1999/xlink" version="1.1" id="Layer_1" x="12.071853381347637" y="237.40844311523438" viewBox="180.2999725341797 57.20000457763672 432.4000244140625 216.59994506835938" xml:space="preserve" height="100.18310546875" width="199.996337890625" preserveAspectRatio="xMinYMin" enable-background="new 0 0 792 330" style="overflow: visible;"><linearGradient id="SVGID_1_" gradientUnits="userSpaceOnUse" x1="538.4" y1="214.595" x2="325.639" y2="214.595" style=""><stop offset="0" style="stop-color: #B521BA;"></stop><stop offset="0.5" style="stop-color: #00ABFF;"></stop><stop offset="1" style="stop-color: #290075;"></stop></linearGradient><path class="st0" d="M412.4,230c-2.3-21.9-6.9-42.3-20.8-42.3h-56c-14.1,0-1.5-30.8-13-30.8c-12.8,0-36.7,30.8-63.4,30.8  c-11.2,0-5.4-18.4-10.4-18.4c-5.5,0-18.2,18.4-30.8,18.4h-36.9c-0.4,0-0.8-0.3-0.8-0.8c0-0.4,0.3-0.8,0.8-0.8h36.9  c11.8,0,24.2-18.4,30.8-18.4c7.7,0,0.6,18.4,10.4,18.4c26,0,49.8-30.7,63.4-30.7c13.4,0,0.8,30.7,13,30.7h56  c15.6,0,20.1,22.6,22.3,43.7c2,18.9,2.4,42.4,7.2,42.4c5.6,0,10.2-20.3,16.4-42.5c6-21.2,13.7-43.6,26.8-43.6h24.3  c6.9,0,12.7,13.1,17.6,25c6,14.4,10,24.1,13.3,24.2c3.7,0,5.3-10.9,7.9-23.9c2.4-12,5.8-25.3,14.8-25.3h69.6c0.4,0,0.8,0.4,0.8,0.8  c0,0.4-0.3,0.8-0.8,0.8h-69.6c-7.5,0-10.8,11.4-13.3,24c-1.8,8.8-3.5,25.2-9.4,25.2c-5-0.1-9.8-13.3-14.7-25.1  c-5.2-12.6-10.6-24.1-16.2-24.1h-24.3c-11.7,0-19.1,20.6-25.3,42.5c-3,10.7-5.7,21.5-8.5,29.6c-2.6,7.8-5.5,14-9.5,14  C414.8,273.8,415.2,256.6,412.4,230z" style="fill-rule: evenodd; clip-rule: evenodd; fill: url(#SVGID_1_);"></path><linearGradient id="SVGID_2_" gradientUnits="userSpaceOnUse" x1="538.4" y1="212.08" x2="325.639" y2="212.08" style=""><stop offset="0" style="stop-color: #B521BA;"></stop><stop offset="0.5" style="stop-color: #00ABFF;"></stop><stop offset="1" style="stop-color: #290075;"></stop></linearGradient><path class="st1" d="M409.9,226.1c-2.8-19.9-7.6-38.5-20.9-38.5h-54c-13.5,0-2.8-27.9-13.8-27.9c-12.9,0-36,27.9-61.6,27.9  c-10.8,0-5.9-16.8-11.2-16.8c-5.9,0-18.4,16.8-30.7,16.8h-36.4c-0.4,0-0.8-0.3-0.8-0.8c0-0.4,0.3-0.8,0.8-0.8h36.4  c11.6,0,23.9-16.8,30.7-16.8c7.6,0,1.7,16.8,11.2,16.8c25,0,47.9-27.9,61.6-27.9c12.9,0,2.1,27.9,13.8,27.9h54  c14.9,0,19.7,20.6,22.4,39.8c1.4,9.9,2.3,19.5,3.6,26.9c1.3,7.7,3,11.6,5.2,11.6c5.9,0,10.9-18.4,17.5-38.6  c6.3-19.3,14.3-39.7,27.2-39.7h23.5c6.7,0,12.4,11.9,17.4,22.8c5.8,12.7,9.8,21.9,13.6,22c3.9,0,5.8-9.9,8.8-21.7  c2.7-10.9,6.5-23,15.4-23h68.1c0.4,0,0.8,0.4,0.8,0.8c0,0.4-0.3,0.8-0.8,0.8h-68.1c-7.4,0-11,10.3-13.9,21.8  c-2.2,8.6-4.4,23-10.3,22.9c-5.2-0.1-10.1-12.1-15-22.8c-5.3-11.5-10.6-21.9-16-21.9h-23.5c-11.5,0-19.2,18.7-25.8,38.6  c-5.1,15.5-11,39.7-19,39.6C413.8,265.9,413.5,251.6,409.9,226.1z" style="fill-rule: evenodd; clip-rule: evenodd; fill: url(#SVGID_2_);"></path><linearGradient id="SVGID_3_" gradientUnits="userSpaceOnUse" x1="538.4" y1="209.565" x2="325.639" y2="209.565" style=""><stop offset="0" style="stop-color: #B521BA;"></stop><stop offset="0.5" style="stop-color: #00ABFF;"></stop><stop offset="1" style="stop-color: #290075;"></stop></linearGradient><path class="st2" d="M411.8,246.5c-1.6-6.6-2.8-15.5-4.5-24.3c-3.4-17.9-8.4-34.6-21-34.6h-52c-13,0-4-25.2-14.7-25.2  c-13.1,0-35.3,25.2-59.8,25.2c-10.4,0-6.6-15.1-12-15.1c-6.3,0-18.6,15.1-30.7,15.1h-35.9c-0.4,0-0.8-0.3-0.8-0.8  c0-0.4,0.3-0.8,0.8-0.8h35.9c11.4,0,23.5-15.1,30.7-15.1c7.5,0,2.8,15.1,12,15.1c23.9,0,46-25.1,59.8-25.1  c12.4,0,3.4,25.1,14.7,25.1h52c14.1,0,19.3,18.5,22.5,35.8c1.7,8.9,2.9,17.6,4.4,24.2c1.7,6.9,3.5,10.4,5.9,10.4  c6.2,0,11.6-16.6,18.6-34.7c6.7-17.4,14.9-35.7,27.6-35.7h22.8c6.5,0,12.2,10.8,17.2,20.5c5.7,11.1,9.9,19.7,14,19.8  c4.1,0,6.4-8.9,9.7-19.6c3.1-9.8,7.2-20.7,16-20.7h66.7c0.4,0,0.8,0.4,0.8,0.8c0,0.4-0.3,0.8-0.8,0.8h-66.7  c-7.4,0-11.2,9.3-14.5,19.6c-2.6,8.1-5.3,20.7-11.2,20.6c-5.3-0.1-10.4-10.9-15.3-20.6c-5.3-10.3-10.5-19.7-15.9-19.7h-22.8  c-11.4,0-19.3,16.9-26.2,34.8c-5.7,14.8-11.9,35.7-20,35.7C415.4,258.1,413.4,252.9,411.8,246.5z" style="fill-rule: evenodd; clip-rule: evenodd; fill: url(#SVGID_3_);"></path><linearGradient id="SVGID_4_" gradientUnits="userSpaceOnUse" x1="538.4" y1="207.05" x2="325.639" y2="207.05" style=""><stop offset="0" style="stop-color: #B521BA;"></stop><stop offset="0.5" style="stop-color: #00ABFF;"></stop><stop offset="1" style="stop-color: #290075;"></stop></linearGradient><path class="st3" d="M410.2,240c-1.9-5.9-3.5-13.8-5.4-21.6c-3.9-15.9-9.2-30.7-21.1-30.7h-50c-12.4,0-5.3-22.4-15.6-22.4  c-13.2,0-34.6,22.4-58,22.4c-10,0-7.3-13.4-12.9-13.4c-6.7,0-18.7,13.4-30.6,13.4h-35.4c-0.4,0-0.8-0.3-0.8-0.8  c0-0.4,0.3-0.8,0.8-0.8h35.4c11.3,0,23.1-13.4,30.6-13.4c7.1,0,4,13.4,12.9,13.4c22.9,0,44.1-22.4,58-22.4c12,0,4.8,22.4,15.6,22.4  h50c13.4,0,18.9,16.5,22.6,31.9c1.9,7.9,3.5,15.6,5.3,21.5c1.9,6,4,9.3,6.6,9.3c6.5,0,12.3-14.7,19.6-30.8c7-15.4,15.5-31.8,28-31.8  H488c6.3,0,12,9.6,17,18.3c5.6,9.7,10.1,17.5,14.3,17.5c4.3,0,6.9-8,10.7-17.4c3.5-8.8,8-18.4,16.5-18.4h65.2c0.4,0,0.8,0.4,0.8,0.8  c0,0.4-0.3,0.8-0.8,0.8h-65.2c-7.3,0-11.4,8.3-15.1,17.4c-3,7.6-6.2,18.4-12.1,18.3c-5.4,0-10.6-9.7-15.6-18.3  c-5.3-9.2-10.5-17.5-15.7-17.5h-22.1c-11.3,0-19.4,15-26.6,30.9c-6.3,13.8-12.9,31.8-21,31.8C414.4,250.3,412,245.7,410.2,240z" style="fill-rule: evenodd; clip-rule: evenodd; fill: url(#SVGID_4_);"></path><linearGradient id="SVGID_5_" gradientUnits="userSpaceOnUse" x1="538.4" y1="204.535" x2="325.639" y2="204.535" style=""><stop offset="0" style="stop-color: #B521BA;"></stop><stop offset="0.5" style="stop-color: #00ABFF;"></stop><stop offset="1" style="stop-color: #290075;"></stop></linearGradient><path class="st4" d="M408.6,233.4c-2.2-5.2-4.1-12.1-6.3-18.9c-4.4-13.9-10-26.8-21.3-26.8h-48c-11.8,0-6.5-19.6-16.5-19.6  c-13.4,0-33.9,19.6-56.2,19.6c-9.5,0-8-11.7-13.7-11.7c-7.1,0-18.9,11.7-30.6,11.7h-34.9c-0.4,0-0.8-0.3-0.8-0.8  c0-0.4,0.3-0.8,0.8-0.8h34.9c11.1,0,22.7-11.7,30.6-11.7c7.1,0,5.1,11.7,13.7,11.7c21.8,0,42.2-19.6,56.2-19.6  c11.4,0,6,19.6,16.5,19.6h48c12.6,0,18.4,14.4,22.7,27.9c2.2,6.9,4,13.7,6.2,18.8c2.2,5.2,4.5,8.1,7.4,8.1c6.8,0,13-12.9,20.7-27  c7.4-13.5,16.1-27.8,28.4-27.8h21.4c6.1,0,11.7,8.4,16.8,16c5.4,8.1,10.2,15.3,14.7,15.3c9.5,0.1,12.5-31.3,28.7-31.3h63.8  c0.4,0,0.8,0.4,0.8,0.8c0,0.4-0.3,0.8-0.8,0.8H548c-15,0-17.8,31.4-28.7,31.3c-5.5,0-10.9-8.4-15.9-16c-5.4-8-10.5-15.3-15.5-15.3  h-21.4c-11.2,0-19.5,13.1-27,27c-6.8,12.4-13.8,27.8-22,27.8C413.4,242.5,410.8,238.5,408.6,233.4z" style="fill-rule: evenodd; clip-rule: evenodd; fill: url(#SVGID_5_);"></path><linearGradient id="SVGID_6_" gradientUnits="userSpaceOnUse" x1="538.4" y1="202.015" x2="325.639" y2="202.015" style=""><stop offset="0" style="stop-color: #B521BA;"></stop><stop offset="0.5" style="stop-color: #00ABFF;"></stop><stop offset="1" style="stop-color: #290075;"></stop></linearGradient><path class="st5" d="M399.9,210.7c-5-11.9-10.7-23-21.4-23h-46.1c-11.2,0-7.8-16.8-17.4-16.8c-13.5,0-33.2,16.8-54.4,16.8  c-9.1,0-8.7-10.1-14.5-10.1c-7.6,0-19.1,10.1-30.5,10.1h-34.3c-0.4,0-0.8-0.3-0.8-0.8c0-0.4,0.3-0.8,0.8-0.8h34.3  c10.9,0,22.4-10.1,30.5-10.1c7,0,6.2,10.1,14.5,10.1c20.8,0,40.4-16.8,54.4-16.8c10.9,0,7.4,16.8,17.4,16.8h46.1  c11.9,0,18,12.4,22.8,24c5.5,13.3,9,23,15.2,23c7.1,0,13.7-11.1,21.8-23.1c7.8-11.6,16.8-23.8,28.8-23.8h20.6  c11.3,0,21.8,26.8,31.6,26.8c9.9,0.1,14.2-26.8,30.2-26.8h62.3c0.4,0,0.8,0.4,0.8,0.8c0,0.4-0.3,0.8-0.8,0.8h-62.3  c-14.8,0-19.1,26.9-30.2,26.8c-10.9-0.1-21.3-26.8-31.6-26.8H467c-11.1,0-19.6,11.3-27.5,23.1c-7.3,10.9-14.8,23.8-23,23.8  C408.6,234.6,404.6,222,399.9,210.7z" style="fill-rule: evenodd; clip-rule: evenodd; fill: url(#SVGID_6_);"></path><linearGradient id="SVGID_7_" gradientUnits="userSpaceOnUse" x1="538.4" y1="199.505" x2="325.639" y2="199.505" style=""><stop offset="0" style="stop-color: #B521BA;"></stop><stop offset="0.5" style="stop-color: #00ABFF;"></stop><stop offset="1" style="stop-color: #290075;"></stop></linearGradient><path class="st6" d="M375.8,187.7h-44.1c-10.6,0-9-14-18.2-14c-13.7,0-32.5,14-52.6,14c-8.7,0-9.4-8.4-15.3-8.4  c-8,0-19.2,8.4-30.5,8.4h-33.8c-0.4,0-0.8-0.3-0.8-0.8c0-0.4,0.3-0.8,0.8-0.8h33.8c10.8,0,22-8.4,30.5-8.4c6.9,0,7.3,8.4,15.3,8.4  c19.7,0,38.5-14,52.6-14c10.3,0,8.6,14,18.2,14h44.1c21.6,0,25.8,39.1,39.7,39.1c15.4,0,28.8-39.1,52-39.1h19.9  c10.9,0,21.5,22.3,31.7,22.4c10.2,0.1,16-22.4,31.7-22.4h60.8c0.4,0,0.8,0.4,0.8,0.8c0,0.4-0.3,0.8-0.8,0.8h-60.8  c-14.7,0-20.5,22.4-31.7,22.4c-11.2-0.1-21.7-22.4-31.7-22.4h-19.9c-22.3,0-35.5,39.2-52,39.1C399.9,226.8,396.5,187.7,375.8,187.7z  " style="fill-rule: evenodd; clip-rule: evenodd; fill: url(#SVGID_7_);"></path><linearGradient id="SVGID_8_" gradientUnits="userSpaceOnUse" x1="538.4" y1="196.985" x2="325.639" y2="196.985" style=""><stop offset="0" style="stop-color: #B521BA;"></stop><stop offset="0.5" style="stop-color: #00ABFF;"></stop><stop offset="1" style="stop-color: #290075;"></stop></linearGradient><path class="st7" d="M373.1,187.7H331c-10,0-10.3-11.2-19.1-11.2c-13.9,0-31.8,11.2-50.9,11.2c-8.2,0-10.1-6.7-16.1-6.7  c-8.4,0-19.4,6.7-30.4,6.7h-33.3c-0.4,0-0.8-0.3-0.8-0.8c0-0.4,0.3-0.8,0.8-0.8h33.3c10.6,0,21.6-6.7,30.4-6.7  c6.8,0,8.4,6.7,16.1,6.7c18.7,0,36.6-11.2,50.9-11.2c9.7,0,10,11.2,19.1,11.2h42.1c20.2,0,26.7,31.3,41.4,31.3  c16,0,30.6-31.3,53.5-31.3h19.2c10.5,0,21.3,17.9,31.9,17.9c10.6,0,17.9-17.9,33.2-17.9h59.4c0.4,0,0.8,0.4,0.8,0.8  c0,0.4-0.3,0.8-0.8,0.8h-59.4c-14.5,0-22,17.9-33.3,17.9c-11.5,0-22.1-17.9-31.9-17.9H468c-22,0-36.6,31.3-53.5,31.3  C398.5,219,392.6,187.7,373.1,187.7z" style="fill-rule: evenodd; clip-rule: evenodd; fill: url(#SVGID_8_);"></path><linearGradient id="SVGID_9_" gradientUnits="userSpaceOnUse" x1="538.4" y1="194.47" x2="325.639" y2="194.47" style=""><stop offset="0" style="stop-color: #B521BA;"></stop><stop offset="0.5" style="stop-color: #00ABFF;"></stop><stop offset="1" style="stop-color: #290075;"></stop></linearGradient><path class="st8" d="M370.5,187.7h-40.1c-9.4,0-11.5-8.4-20-8.4c-14,0-31.1,8.4-49.1,8.4c-7.8,0-10.8-5-16.9-5c-8.8,0-19.6,5-30.4,5  h-32.8c-0.4,0-0.8-0.3-0.8-0.8c0-0.4,0.3-0.8,0.8-0.8h32.8c10.5,0,21.3-5,30.4-5c6.7,0,9.6,5,16.9,5c17.6,0,34.7-8.4,49.1-8.4  c9.2,0,11.3,8.4,20,8.4h40.1c18.7,0,27.6,23.5,43.1,23.5c16.6,0,32.5-23.5,54.9-23.5H487c10.1,0,21,13.4,32,13.4  c10.9,0,19.7-13.4,34.8-13.4h57.9c0.4,0,0.8,0.4,0.8,0.8c0,0.4-0.3,0.8-0.8,0.8h-57.9c-14.4,0-23.3,13.4-34.8,13.4  c-11.8,0-22.4-13.4-32-13.4h-18.5c-21.7,0-37.7,23.5-54.9,23.5C397.2,211.2,388.6,187.7,370.5,187.7z" style="fill-rule: evenodd; clip-rule: evenodd; fill: url(#SVGID_9_);"></path><linearGradient id="SVGID_10_" gradientUnits="userSpaceOnUse" x1="538.4" y1="191.96" x2="325.639" y2="191.96" style=""><stop offset="0" style="stop-color: #B521BA;"></stop><stop offset="0.5" style="stop-color: #00ABFF;"></stop><stop offset="1" style="stop-color: #290075;"></stop></linearGradient><path class="st9" d="M367.9,187.7h-38.1c-8.8,0-12.6-5.6-20.9-5.6c-14.2,0-30.5,5.6-47.3,5.6c-7.3,0-11.5-3.4-17.7-3.4  c-9.2,0-19.8,3.4-30.3,3.4h-32.3c-0.4,0-0.8-0.3-0.8-0.8c0-0.4,0.3-0.8,0.8-0.8h32.3c10.4,0,20.9-3.3,30.3-3.3  c6.6,0,10.7,3.3,17.7,3.3c16.6,0,32.9-5.6,47.3-5.6c8.6,0,12.5,5.6,20.9,5.6h38.1c17.3,0,28.6,15.7,44.9,15.7  c17.2,0,34.4-15.7,56.4-15.7h17.8c9.7,0,20.6,8.9,32.1,9c11.3,0,21.5-9,36.3-9h56.5c0.4,0,0.8,0.4,0.8,0.8c0,0.4-0.3,0.8-0.8,0.8  h-56.5c-14.3,0-24.7,9-36.3,8.9c-12,0-22.8-8.9-32.1-8.9h-17.8c-21.5,0-38.8,15.7-56.4,15.7C395.8,203.3,384.7,187.7,367.9,187.7z" style="fill-rule: evenodd; clip-rule: evenodd; fill: url(#SVGID_10_);"></path><linearGradient id="SVGID_11_" gradientUnits="userSpaceOnUse" x1="538.4" y1="189.44" x2="325.639" y2="189.44" style=""><stop offset="0" style="stop-color: #B521BA;"></stop><stop offset="0.5" style="stop-color: #00ABFF;"></stop><stop offset="1" style="stop-color: #290075;"></stop></linearGradient><path class="st10" d="M365.2,187.7H329c-8.1,0-13.8-2.8-21.7-2.8c-14.4,0-29.8,2.8-45.5,2.8c-6.9,0-12.2-1.7-18.6-1.7  c-9.7,0-20,1.7-30.3,1.7h-31.8c-0.4,0-0.8-0.3-0.8-0.8c0-0.4,0.3-0.8,0.8-0.8H213c10.2,0,20.5-1.7,30.3-1.7c6.5,0,11.8,1.7,18.6,1.7  c15.6,0,31-2.8,45.5-2.8c8.1,0,13.8,2.8,21.7,2.8h36.2c15.8,0,29.6,7.8,46.6,7.8c17.8,0,36.3-7.8,57.8-7.8h17  c9.3,0,20.3,4.5,32.3,4.5c11.6,0,23.4-4.5,37.8-4.5h55c0.4,0,0.8,0.4,0.8,0.8c0,0.4-0.3,0.8-0.8,0.8h-55c-14.2,0-26,4.5-37.8,4.5  c-12.3,0-23.2-4.5-32.3-4.5h-17c-21.2,0-39.9,7.8-57.8,7.8C394.5,195.5,380.8,187.7,365.2,187.7z" style="fill-rule: evenodd; clip-rule: evenodd; fill: url(#SVGID_11_);"></path><linearGradient id="SVGID_12_" gradientUnits="userSpaceOnUse" x1="538.4" y1="122.56" x2="325.639" y2="122.56" style=""><stop offset="0" style="stop-color: #B521BA;"></stop><stop offset="0.5" style="stop-color: #00ABFF;"></stop><stop offset="1" style="stop-color: #290075;"></stop></linearGradient><path class="st11" d="M180.5,187.1c0-0.4,0.3-0.8,0.8-0.8h114.5c31.3,0,50.2-31.7,63.6-64.1c13.6-32.8,21-65,31-65  c3.9,0,5.8,9.3,7.3,20.8c1.5,12.1,2.7,28.3,4.1,44.4c3.1,33.3,7.5,63.9,18.5,63.9h31.5c8.4,0,13.9-18.9,18.3-39.4  c5.9-27.5,7.8-40.6,12.5-40.6c6.5,0,6.3,14,8.9,40.7c2,20.3,6.1,39.3,19.3,39.3h100.9c0.4,0,0.8,0.4,0.8,0.8c0,0.4-0.3,0.8-0.8,0.8  H510.8c-15,0-18.9-21-20.8-40.7c-1-10.1-1.5-20-2.5-27.5c-1.1-7.9-2.6-11.8-4.9-11.8c-1.4,0-3.2,4-5.1,11.9  c-1.8,7.5-3.7,17.4-5.8,27.5c-4.2,19.5-9.8,40.6-19.8,40.6h-31.5c-12.9,0-17.1-33.6-20.1-65.3c-1.5-16.2-2.6-32.3-4.1-44.4  c-1.6-12.7-3.6-19.5-5.8-19.5c-8.4,0-15.9,31.1-29.6,64.1c-13.3,32.2-32.5,65-65,65H181.3C180.8,187.9,180.5,187.6,180.5,187.1z" style="fill-rule: evenodd; clip-rule: evenodd; fill: url(#SVGID_12_);"></path><linearGradient id="SVGID_13_" gradientUnits="userSpaceOnUse" x1="538.4" y1="128.43" x2="325.639" y2="128.43" style=""><stop offset="0" style="stop-color: #B521BA;"></stop><stop offset="0.5" style="stop-color: #00ABFF;"></stop><stop offset="1" style="stop-color: #290075;"></stop></linearGradient><path class="st12" d="M180.5,187.1c0-0.4,0.3-0.8,0.8-0.8h111.5c29.9,0,48.5-28.8,62.1-58.3c13.9-29.9,22-59.2,32.6-59.2  c4.2,0,6.6,8.4,8.4,19c2,11,3.6,25.8,5.5,40.4c4,30.3,9.2,58,20.3,58H452c8.2,0,13.8-17.2,18.4-35.8c2.3-9.1,4.3-18.2,6.3-25  c1.9-6.5,4.1-11.9,7.1-11.9c6.4,0,6.8,11.4,10.5,37c2.6,18.5,7.1,35.7,19.9,35.7h97.5c0.4,0,0.8,0.4,0.8,0.8c0,0.4-0.3,0.8-0.8,0.8  h-97.5c-14.5,0-18.9-19.1-21.4-37c-1.3-9.1-2.1-18.1-3.4-24.9c-1.4-7.1-3.1-10.7-5.5-10.7c-1.6,0-3.5,3.6-5.7,10.8  c-2,6.8-4,15.8-6.3,24.9c-4.5,17.7-10.2,36.9-19.9,36.9h-30.3c-12.9,0-18-30.6-21.8-59.4c-2-14.7-3.6-29.3-5.5-40.3  c-2.1-11.5-4.4-17.7-6.9-17.7c-9.1,0-17.3,28.3-31.2,58.3c-13.6,29.3-32.5,59.1-63.5,59.1H181.3  C180.8,187.9,180.5,187.6,180.5,187.1z" style="fill-rule: evenodd; clip-rule: evenodd; fill: url(#SVGID_13_);"></path><linearGradient id="SVGID_14_" gradientUnits="userSpaceOnUse" x1="538.4" y1="134.3" x2="325.639" y2="134.3" style=""><stop offset="0" style="stop-color: #B521BA;"></stop><stop offset="0.5" style="stop-color: #00ABFF;"></stop><stop offset="1" style="stop-color: #290075;"></stop></linearGradient><path class="st13" d="M180.5,187.1c0-0.4,0.3-0.8,0.8-0.8h108.4c28.5,0,46.8-25.9,60.6-52.4c14.2-27.2,23.1-53.3,34.2-53.3  c4.4,0,7.3,7.5,9.6,17.1c2.4,9.9,4.5,23.2,6.9,36.4c4.9,27.2,10.8,52.2,22.1,52.2h29.1c8,0,13.6-15.4,18.6-32.1  c3.8-12.7,8.3-33.3,14.5-33.3c4,0,6.1,4.9,7.6,10.8c1.6,6.2,2.8,14.4,4.4,22.5c3.3,16.6,8.1,32.1,20.5,32.1h94  c0.4,0,0.8,0.4,0.8,0.8c0,0.4-0.3,0.8-0.8,0.8h-94c-13.9,0-18.9-17.2-22-33.3c-1.6-8.2-2.8-16.3-4.4-22.4c-1.6-6.3-3.6-9.7-6.1-9.7  c-4.1,0-8,15.2-13,32.2c-4.7,16-10.6,33.3-20,33.3H423c-13,0-18.9-27.5-23.6-53.5c-2.4-13.2-4.5-26.4-6.9-36.3  c-2.5-10.3-5.2-15.9-8.1-15.9c-19.8,0-36.5,105.7-94.8,105.7H181.3C180.8,187.9,180.5,187.6,180.5,187.1z" style="fill-rule: evenodd; clip-rule: evenodd; fill: url(#SVGID_14_);"></path><linearGradient id="SVGID_15_" gradientUnits="userSpaceOnUse" x1="538.4" y1="140.17" x2="325.639" y2="140.17" style=""><stop offset="0" style="stop-color: #B521BA;"></stop><stop offset="0.5" style="stop-color: #00ABFF;"></stop><stop offset="1" style="stop-color: #290075;"></stop></linearGradient><path class="st14" d="M180.5,187.1c0-0.4,0.3-0.8,0.8-0.8h105.3c27.1,0,45.1-23.1,59.2-46.6c14.7-24.5,24.2-47.3,35.7-47.3  c9.3,0,14.4,28.5,19,47.6c5.9,24.1,12.4,46.4,23.9,46.4h27.8c7.8,0,13.5-13.7,18.7-28.6c4.3-12.3,9.1-29.6,15.5-29.6  c4,0,6.4,4.3,8.2,9.6c1.9,5.5,3.5,12.8,5.4,20c3.9,14.7,9.1,28.5,21.2,28.5h90.5c0.4,0,0.8,0.4,0.8,0.8c0,0.4-0.3,0.8-0.8,0.8h-90.5  c-13.5,0-18.9-15.3-22.7-29.6c-1.9-7.3-3.4-14.5-5.3-19.9c-1.9-5.6-4-8.6-6.8-8.6c-4.5,0-8.8,13.5-14.1,28.6  c-5,14.2-11,29.6-20.2,29.6h-27.8c-13,0-19.8-24.5-25.3-47.5C392.7,114,388.3,94,381.5,94c-21.1,0-39.5,93.9-94.9,93.9H181.3  C180.8,187.9,180.5,187.6,180.5,187.1z" style="fill-rule: evenodd; clip-rule: evenodd; fill: url(#SVGID_15_);"></path><linearGradient id="SVGID_16_" gradientUnits="userSpaceOnUse" x1="538.4" y1="146.04" x2="325.639" y2="146.04" style=""><stop offset="0" style="stop-color: #B521BA;"></stop><stop offset="0.5" style="stop-color: #00ABFF;"></stop><stop offset="1" style="stop-color: #290075;"></stop></linearGradient><path class="st15" d="M180.5,187.1c0-0.4,0.3-0.8,0.8-0.8h102.3c25.7,0,43.4-20.2,57.7-40.8c15.4-22.1,25.3-41.4,37.3-41.4  c9.7,0,15.9,23.8,21.6,41.6c6.7,20.9,14.1,40.6,25.6,40.6h26.6c7.6,0,13.4-12,18.9-25c4.8-11.3,10-25.9,16.5-25.9  c7.7,0,10.9,13.7,15.1,25.9c4.5,12.9,10.1,24.9,21.8,24.9h87c0.4,0,0.8,0.4,0.8,0.8c0,0.4-0.3,0.8-0.8,0.8h-87  c-12.9,0-18.9-13.4-23.3-25.9c-5.7-16.2-8.1-24.9-13.7-24.9c-4.9,0-9.5,11.8-15.1,25c-5.3,12.4-11.5,25.9-20.3,25.9h-26.6  c-13,0-20.6-21.4-27.1-41.6c-7.1-22.3-12.5-40.6-20.1-40.6c-22.4,0-42.5,82.2-95,82.2H181.3C180.8,187.9,180.5,187.6,180.5,187.1z" style="fill-rule: evenodd; clip-rule: evenodd; fill: url(#SVGID_16_);"></path><linearGradient id="SVGID_17_" gradientUnits="userSpaceOnUse" x1="538.4" y1="151.91" x2="325.639" y2="151.91" style=""><stop offset="0" style="stop-color: #B521BA;"></stop><stop offset="0.5" style="stop-color: #00ABFF;"></stop><stop offset="1" style="stop-color: #290075;"></stop></linearGradient><path class="st16" d="M180.5,187.1c0-0.4,0.3-0.8,0.8-0.8h99.2c48.9,0,69.9-70.4,95.1-70.4c9.9,0,16.8,18.5,24.1,35.7  c7.6,17.9,15.7,34.8,27.4,34.8h25.3c7.4,0,13.3-10.3,19.1-21.4c5.2-10,10.9-22.2,17.5-22.2c15.2,0,15.8,43.6,39.1,43.6h83.6  c0.4,0,0.8,0.4,0.8,0.8c0,0.4-0.3,0.8-0.8,0.8h-83.6c-24.2,0-25.8-43.6-39.1-43.6c-5.4,0-10.3,10.1-16.1,21.4  c-5.5,10.7-11.9,22.2-20.5,22.2h-25.3c-13,0-21.4-18.3-28.8-35.7c-7.9-18.7-14.1-34.8-22.7-34.8c-23.8,0-45.5,70.4-95.1,70.4h-99.2  C180.8,187.9,180.5,187.6,180.5,187.1z" style="fill-rule: evenodd; clip-rule: evenodd; fill: url(#SVGID_17_);"></path><linearGradient id="SVGID_18_" gradientUnits="userSpaceOnUse" x1="538.4" y1="157.78" x2="325.639" y2="157.78" style=""><stop offset="0" style="stop-color: #B521BA;"></stop><stop offset="0.5" style="stop-color: #00ABFF;"></stop><stop offset="1" style="stop-color: #290075;"></stop></linearGradient><path class="st17" d="M180.5,187.1c0-0.4,0.3-0.8,0.8-0.8h96.2c46,0,68.9-58.7,95.2-58.7c10.4,0,18.4,15.3,26.6,29.7  c8.5,14.9,17.3,29,29.2,29h24.1c7.2,0,13.3-8.6,19.3-17.8c5.8-8.8,11.6-18.5,18.5-18.5c15.2,0,18.8,36.3,41.3,36.3h80.1  c0.4,0,0.8,0.4,0.8,0.8c0,0.4-0.3,0.8-0.8,0.8h-80.1c-23.3,0-27.4-36.3-41.3-36.3c-5.8,0-11.1,8.5-17.2,17.8  c-5.8,8.9-12.3,18.5-20.6,18.5h-24.1c-13,0-22.3-15.2-30.5-29.7c-8.6-15-16-29-25.3-29c-25.1,0-48.6,58.7-95.2,58.7h-96.2  C180.8,187.9,180.5,187.6,180.5,187.1z" style="fill-rule: evenodd; clip-rule: evenodd; fill: url(#SVGID_18_);"></path><linearGradient id="SVGID_19_" gradientUnits="userSpaceOnUse" x1="538.4" y1="163.65" x2="325.639" y2="163.65" style=""><stop offset="0" style="stop-color: #B521BA;"></stop><stop offset="0.5" style="stop-color: #00ABFF;"></stop><stop offset="1" style="stop-color: #290075;"></stop></linearGradient><path class="st18" d="M180.5,187.1c0-0.4,0.3-0.8,0.8-0.8h93.1c43.2,0,68-47,95.3-47c21.5,0,35.5,47,60.1,47h22.8  c14.5,0,25.1-29.1,39-29.1c15.5,0,21.9,29.1,43.5,29.1h76.6c0.4,0,0.8,0.4,0.8,0.8c0,0.4-0.3,0.8-0.8,0.8h-76.6  c-22.3,0-29.1-29.1-43.5-29.1c-12.8,0-23.6,29.1-39,29.1h-22.8c-25.6,0-39.8-47-60.1-47c-26.5,0-51.6,47-95.3,47h-93.1  C180.8,187.9,180.5,187.6,180.5,187.1z" style="fill-rule: evenodd; clip-rule: evenodd; fill: url(#SVGID_19_);"></path><linearGradient id="SVGID_20_" gradientUnits="userSpaceOnUse" x1="538.4" y1="169.52" x2="325.639" y2="169.52" style=""><stop offset="0" style="stop-color: #B521BA;"></stop><stop offset="0.5" style="stop-color: #00ABFF;"></stop><stop offset="1" style="stop-color: #290075;"></stop></linearGradient><path class="st19" d="M180.5,187.1c0-0.4,0.3-0.8,0.8-0.8h90c40.4,0,67-35.2,95.5-35.2c22.6,0,39.5,35.2,64.5,35.2h21.6  c14,0,25.8-21.8,40.1-21.8c15.7,0,24.9,21.8,45.6,21.8h73.2c0.4,0,0.8,0.4,0.8,0.8c0,0.4-0.3,0.8-0.8,0.8h-73.2  c-21.3,0-30.7-21.8-45.6-21.8c-13.5,0-25.3,21.8-40.1,21.8h-21.6c-25.7,0-42.7-35.2-64.5-35.2c-27.8,0-54.7,35.2-95.5,35.2h-90  C180.8,187.9,180.5,187.6,180.5,187.1z" style="fill-rule: evenodd; clip-rule: evenodd; fill: url(#SVGID_20_);"></path><linearGradient id="SVGID_21_" gradientUnits="userSpaceOnUse" x1="538.4" y1="175.39" x2="325.639" y2="175.39" style=""><stop offset="0" style="stop-color: #B521BA;"></stop><stop offset="0.5" style="stop-color: #00ABFF;"></stop><stop offset="1" style="stop-color: #290075;"></stop></linearGradient><path class="st20" d="M180.5,187.1c0-0.4,0.3-0.8,0.8-0.8h87c37.5,0,65.9-23.5,95.6-23.5c23.6,0,43.5,23.5,68.8,23.5h20.4  c13.6,0,26.5-14.5,41.3-14.5c15.9,0,27.9,14.5,47.8,14.5h69.7c0.4,0,0.8,0.4,0.8,0.8c0,0.4-0.3,0.8-0.8,0.8H542  c-20.3,0-32.4-14.5-47.8-14.5c-14.4,0-27.2,14.5-41.3,14.5h-20.4c-25.7,0-45.6-23.5-68.8-23.5c-29.2,0-57.7,23.5-95.6,23.5h-87  C180.8,187.9,180.5,187.6,180.5,187.1z" style="fill-rule: evenodd; clip-rule: evenodd; fill: url(#SVGID_21_);"></path><linearGradient id="SVGID_22_" gradientUnits="userSpaceOnUse" x1="538.4" y1="181.26" x2="325.639" y2="181.26" style=""><stop offset="0" style="stop-color: #B521BA;"></stop><stop offset="0.5" style="stop-color: #00ABFF;"></stop><stop offset="1" style="stop-color: #290075;"></stop></linearGradient><path class="st21" d="M180.5,187.1c0-0.4,0.3-0.8,0.8-0.8h83.9c34.7,0,64.9-11.7,95.7-11.7c24.7,0,47.6,11.7,73.1,11.7H453  c13.3,0,27.1-7.3,42.5-7.3c16.1,0,30.9,7.3,50,7.3h66.2c0.4,0,0.8,0.4,0.8,0.8c0,0.4-0.3,0.8-0.8,0.8h-66.2c-19.3,0-34.1-7.3-50-7.3  c-15.2,0-28.9,7.3-42.5,7.3h-19.1c-25.8,0-48.6-11.7-73.1-11.7c-30.6,0-60.8,11.7-95.7,11.7h-83.9  C180.8,187.9,180.5,187.6,180.5,187.1z" style="fill-rule: evenodd; clip-rule: evenodd; fill: url(#SVGID_22_);"></path><linearGradient id="SVGID_23_" gradientUnits="userSpaceOnUse" x1="538.4" y1="187.13" x2="325.639" y2="187.13" style=""><stop offset="0" style="stop-color: #B521BA;"></stop><stop offset="0.5" style="stop-color: #00ABFF;"></stop><stop offset="1" style="stop-color: #290075;"></stop></linearGradient><path class="st22" d="M180.5,187.1c0-0.4,0.3-0.8,0.8-0.8h430.5c0.4,0,0.8,0.4,0.8,0.8c0,0.4-0.3,0.8-0.8,0.8H181.3  C180.8,187.9,180.5,187.6,180.5,187.1z" style="fill-rule: evenodd; clip-rule: evenodd; fill: url(#SVGID_23_);"></path></svg> <svg xmlns="http://www.w3.org/2000/svg" y="265.458251953125" viewBox="5.980000019073486 16.399999618530273 209.48001098632812 50.269996643066406" x="341.8825402679637" height="50.269996643066406" width="209.48001098632812" style="overflow: visible;"><g fill="#FFFFFF" fill-opacity="1" style=""><path d="M11.99 65.88L5.98 65.88L5.98 16.40L14.94 16.40L27.13 47.61Q27.56 48.71 28.11 50.35Q28.65 52.00 29.27 53.92Q29.88 55.85 30.45 57.76Q31.01 59.67 31.44 61.29L31.44 61.29L30.05 61.29Q30.51 59.77 31.08 57.89Q31.64 56.01 32.26 54.07Q32.87 52.13 33.44 50.44Q34 48.74 34.43 47.61L34.43 47.61L46.45 16.40L55.45 16.40L55.45 65.88L49.24 65.88L49.24 37.62Q49.24 36.09 49.26 34.13Q49.27 32.17 49.32 30.02Q49.37 27.86 49.42 25.63Q49.47 23.41 49.51 21.32L49.51 21.32L50.04 21.32Q49.34 23.61 48.56 25.98Q47.78 28.36 47.03 30.56Q46.29 32.77 45.62 34.60Q44.96 36.42 44.49 37.62L44.49 37.62L33.44 65.88L27.96 65.88L16.73 37.62Q16.27 36.46 15.64 34.68Q15.01 32.90 14.26 30.73Q13.51 28.55 12.72 26.15Q11.92 23.74 11.09 21.32L11.09 21.32L11.69 21.32Q11.75 23.18 11.80 25.33Q11.85 27.49 11.89 29.70Q11.92 31.91 11.95 33.95Q11.99 35.99 11.99 37.62L11.99 37.62L11.99 65.88ZM78.38 66.67L78.38 66.67Q73.33 66.67 69.53 64.28Q65.73 61.89 63.60 57.57Q61.48 53.26 61.48 47.55L61.48 47.55Q61.48 41.74 63.60 37.40Q65.73 33.07 69.53 30.68Q73.33 28.29 78.38 28.29L78.38 28.29Q83.46 28.29 87.28 30.68Q91.10 33.07 93.22 37.40Q95.35 41.74 95.35 47.55L95.35 47.55Q95.35 53.26 93.22 57.57Q91.10 61.89 87.28 64.28Q83.46 66.67 78.38 66.67ZM78.38 61.33L78.38 61.33Q82.13 61.33 84.56 59.40Q86.98 57.47 88.14 54.34Q89.30 51.20 89.30 47.55L89.30 47.55Q89.30 43.86 88.14 40.69Q86.98 37.52 84.56 35.58Q82.13 33.63 78.38 33.63L78.38 33.63Q74.66 33.63 72.27 35.58Q69.88 37.52 68.72 40.67Q67.56 43.83 67.56 47.55L67.56 47.55Q67.56 51.20 68.72 54.34Q69.88 57.47 72.27 59.40Q74.66 61.33 78.38 61.33ZM114.56 66.67L114.56 66.67Q109.94 66.67 106.39 64.31Q102.84 61.96 100.84 57.64Q98.85 53.32 98.85 47.41L98.85 47.41Q98.85 41.54 100.86 37.24Q102.87 32.94 106.42 30.61Q109.98 28.29 114.59 28.29L114.59 28.29Q118.21 28.29 120.33 29.48Q122.46 30.68 123.61 32.19Q124.75 33.70 125.35 34.70L125.35 34.70L125.81 34.70L125.81 16.40L131.79 16.40L131.79 65.88L126.01 65.88L126.01 60.13L125.35 60.13Q124.75 61.16 123.57 62.70Q122.39 64.25 120.25 65.46Q118.11 66.67 114.56 66.67ZM115.45 61.33L115.45 61.33Q118.84 61.33 121.16 59.55Q123.49 57.77 124.68 54.62Q125.88 51.46 125.88 47.35L125.88 47.35Q125.88 43.23 124.70 40.16Q123.52 37.09 121.20 35.36Q118.87 33.63 115.45 33.63L115.45 33.63Q111.93 33.63 109.59 35.46Q107.25 37.29 106.09 40.39Q104.93 43.50 104.93 47.35L104.93 47.35Q104.93 51.23 106.11 54.40Q107.29 57.57 109.64 59.45Q112.00 61.33 115.45 61.33ZM154.49 66.67L154.49 66.67Q149.11 66.67 145.21 64.28Q141.31 61.89 139.20 57.61Q137.09 53.32 137.09 47.61L137.09 47.61Q137.09 41.90 139.15 37.55Q141.21 33.20 144.97 30.75Q148.74 28.29 153.79 28.29L153.79 28.29Q156.75 28.29 159.62 29.27Q162.49 30.25 164.83 32.42Q167.17 34.60 168.57 38.15Q169.96 41.70 169.96 46.85L169.96 46.85L169.96 49.34L141.14 49.34L141.14 44.29L166.74 44.29L163.95 46.15Q163.95 42.50 162.80 39.66Q161.66 36.82 159.40 35.21Q157.14 33.60 153.79 33.60L153.79 33.60Q150.44 33.60 148.05 35.25Q145.66 36.89 144.39 39.53Q143.13 42.17 143.13 45.19L143.13 45.19L143.13 48.54Q143.13 52.66 144.56 55.53Q145.99 58.40 148.56 59.88Q151.13 61.36 154.52 61.36L154.52 61.36Q156.71 61.36 158.51 60.73Q160.30 60.10 161.59 58.82Q162.89 57.54 163.59 55.65L163.59 55.65L169.36 57.24Q168.50 60.03 166.44 62.16Q164.38 64.28 161.34 65.48Q158.31 66.67 154.49 66.67ZM175.13 16.40L181.10 16.40L181.10 65.88L175.13 65.88L175.13 16.40ZM200.81 66.67L200.81 66.67Q196.99 66.67 194.02 65.56Q191.05 64.45 189.12 62.26Q187.20 60.06 186.54 56.88L186.54 56.88L192.21 55.52Q193.01 58.57 195.22 60.00Q197.43 61.43 200.75 61.43L200.75 61.43Q204.63 61.43 206.94 59.77Q209.25 58.11 209.25 55.81L209.25 55.81Q209.25 53.89 207.90 52.61Q206.56 51.33 203.80 50.70L203.80 50.70L197.62 49.24Q192.58 48.04 190.12 45.54Q187.66 43.03 187.66 39.11L187.66 39.11Q187.66 35.93 189.46 33.49Q191.25 31.04 194.35 29.67Q197.46 28.29 201.41 28.29L201.41 28.29Q205.23 28.29 207.90 29.43Q210.57 30.58 212.25 32.59Q213.93 34.60 214.76 37.22L214.76 37.22L209.35 38.62Q208.58 36.62 206.81 35.00Q205.03 33.37 201.44 33.37L201.44 33.37Q198.12 33.37 195.92 34.90Q193.71 36.42 193.71 38.75L193.71 38.75Q193.71 40.81 195.20 42.05Q196.70 43.30 199.95 44.06L199.95 44.06L205.56 45.39Q210.61 46.58 213.03 49.09Q215.46 51.60 215.46 55.42L215.46 55.42Q215.46 58.67 213.61 61.21Q211.77 63.75 208.47 65.21Q205.16 66.67 200.81 66.67Z" transform="translate(0, 0)"></path></g></svg> <svg xmlns="http://www.w3.org/2000/svg" y="262.503" viewBox="5.099999904632568 19.040000915527344 129.33999633789062 52.970001220703125" x="209.068" height="52.970001220703125" width="129.33999633789062" style="overflow: visible;"><g fill="#FFFFFF" fill-opacity="1" style=""><path d="M38.90 71.40L29.65 71.40L18.77 52.50L12.85 52.50L12.85 71.40L5.10 71.40L5.10 24.14L21.42 24.14Q26.86 24.14 30.63 26.04Q34.41 27.95 36.28 31.14Q38.15 34.34 38.15 38.28L38.15 38.28Q38.15 42.91 35.46 46.68Q32.78 50.46 27.20 51.82L27.20 51.82L38.90 71.40ZM12.85 30.46L12.85 46.31L21.42 46.31Q25.77 46.31 27.98 44.13Q30.19 41.96 30.19 38.28L30.19 38.28Q30.19 34.61 28.02 32.54Q25.84 30.46 21.42 30.46L21.42 30.46L12.85 30.46ZM52.02 28.97Q49.91 28.97 48.48 27.54Q47.06 26.11 47.06 24.00L47.06 24.00Q47.06 21.90 48.48 20.47Q49.91 19.04 52.02 19.04L52.02 19.04Q54.06 19.04 55.49 20.47Q56.92 21.90 56.92 24.00L56.92 24.00Q56.92 26.11 55.49 27.54Q54.06 28.97 52.02 28.97L52.02 28.97ZM48.08 33.93L55.83 33.93L55.83 71.40L48.08 71.40L48.08 33.93ZM79.63 72.01Q75.21 72.01 71.71 70.41Q68.20 68.82 66.16 66.06Q64.12 63.31 63.99 59.91L63.99 59.91L72.01 59.91Q72.22 62.29 74.29 63.89Q76.36 65.48 79.49 65.48L79.49 65.48Q82.76 65.48 84.56 64.23Q86.36 62.97 86.36 61.00L86.36 61.00Q86.36 58.89 84.35 57.87Q82.35 56.85 78.00 55.62L78.00 55.62Q73.78 54.47 71.13 53.38Q68.48 52.29 66.54 50.05Q64.60 47.80 64.60 44.13L64.60 44.13Q64.60 41.14 66.37 38.66Q68.14 36.18 71.43 34.75Q74.73 33.32 79.02 33.32L79.02 33.32Q85.41 33.32 89.32 36.55Q93.23 39.78 93.50 45.36L93.50 45.36L85.75 45.36Q85.54 42.84 83.71 41.34Q81.87 39.85 78.74 39.85L78.74 39.85Q75.68 39.85 74.05 41.00Q72.42 42.16 72.42 44.06L72.42 44.06Q72.42 45.56 73.51 46.58Q74.60 47.60 76.16 48.18Q77.72 48.76 80.78 49.64L80.78 49.64Q84.86 50.73 87.48 51.85Q90.10 52.97 92.00 55.15Q93.91 57.32 93.98 60.93L93.98 60.93Q93.98 64.12 92.21 66.64Q90.44 69.16 87.21 70.58Q83.98 72.01 79.63 72.01L79.63 72.01ZM134.44 33.93L117.16 52.70L134.44 71.40L123.96 71.40L110.09 55.28L110.09 71.40L102.34 71.40L102.34 21.08L110.09 21.08L110.09 50.32L123.69 33.93L134.44 33.93Z" transform="translate(0, 0)"></path></g></svg></svg>